<svg id="Layer_1" data-name="Layer 1" xmlns="http://www.w3.org/2000/svg" viewBox="0 0 1382 1078.8876"><defs><style>.cls-1{fill:#fff;}.cls-2{opacity:0.7;}</style></defs><title>Machine Learning Slide</title><path class="cls-1" d="M179.0225,456.2891l-2.253-8.2622h-13.708l-2.2529,8.2622h-7.5117l12.456-41.7486h8.3252l12.4551,41.7486Zm-9.0762-34.3628-5.4453,19.9668h10.8916Z"/><path class="cls-1" d="M196.9863,456.2891V414.5405h14.209c8.1992,0,12.33,6.0088,12.33,12.9566,0,7.01-4.1309,13.019-12.33,13.019h-7.2607v15.773Zm19.4658-28.792c0-4.1314-2.3779-6.8853-6.0712-6.8853h-6.4463v13.77h6.4463C214.0742,434.3818,216.4521,431.6279,216.4521,427.4971Z"/><path class="cls-1" d="M235.3555,456.2891V414.5405h14.208c8.1992,0,12.33,6.0088,12.33,12.9566,0,7.01-4.1309,13.019-12.33,13.019h-7.2608v15.773Zm19.4658-28.792c0-4.1314-2.3789-6.8853-6.0713-6.8853h-6.4473v13.77H248.75C252.4424,434.3818,254.8213,431.6279,254.8213,427.4971Z"/><path class="cls-1" d="M273.7236,456.2891V414.5405h6.9473v35.6148H295.13v6.1338Z"/><path class="cls-1" d="M307.1475,456.2891V414.5405h6.9472v41.7486Z"/><path class="cls-1" d="M328.3662,456.2891V414.5405h22.8457v6.0713H335.3135v11.3291h15.46v6.1338h-15.46v12.0806h15.8984v6.1338Z"/><path class="cls-1" d="M364.168,456.2891V414.5405h12.456c11.2041,0,17.5879,8.7627,17.5879,20.9058s-6.3213,20.8428-17.5879,20.8428Zm22.9091-20.8428c0-8.7632-3.5058-14.8345-10.4531-14.8345h-5.5078v29.5435h5.5078C383.4463,450.1553,387.0771,444.021,387.0771,435.4463Z"/><path class="cls-1" d="M426.4473,456.2891V414.5405h6.9472v41.7486Z"/><path class="cls-1" d="M470.0732,456.2891l-15.46-26.9771v26.9771H447.666V414.5405h7.01l15.0849,26.2261V414.5405h6.9473v41.7486Z"/><path class="cls-1" d="M497.99,456.2891V420.6118h-9.5771v-6.0713h26.0381v6.0713H504.875v35.6773Z"/><path class="cls-1" d="M545.3086,456.2891l-7.0723-15.773h-5.1328v15.773h-6.9473V414.5405h14.3956c7.1982,0,12.1425,5.1949,12.1425,12.8941,0,7.3232-4.0058,10.8906-7.6982,11.8921l8.0742,16.9624Zm.3135-28.792c0-4.1314-2.3789-6.8853-6.0713-6.8853h-6.4473v13.77h6.4473C543.2432,434.3818,545.6221,431.6279,545.6221,427.4971Z"/><path class="cls-1" d="M564.2119,435.4463c0-12.2681,6.1338-21.5942,16.7119-21.5942s16.7119,9.3261,16.7119,21.5942S591.502,457.04,580.9238,457.04,564.2119,447.7139,564.2119,435.4463Zm26.3506,0c0-8.7632-3.4424-15.4605-9.6387-15.4605-6.2588,0-9.64,6.6973-9.64,15.4605,0,8.6372,3.3808,15.3975,9.64,15.3975C587.12,450.8438,590.5625,444.0835,590.5625,435.4463Z"/><path class="cls-1" d="M636.8809,456.2891V420.6118h-9.5762v-6.0713h26.0381v6.0713h-9.5762v35.6773Z"/><path class="cls-1" d="M662.3564,435.4463c0-12.2681,6.1338-21.5942,16.712-21.5942s16.7119,9.3261,16.7119,21.5942S689.6465,457.04,679.0684,457.04,662.3564,447.7139,662.3564,435.4463Zm26.3506,0c0-8.7632-3.4424-15.4605-9.6386-15.4605-6.26,0-9.64,6.6973-9.64,15.4605,0,8.6372,3.38,15.3975,9.64,15.3975C685.2646,450.8438,688.707,444.0835,688.707,435.4463Z"/><path class="cls-1" d="M214.5342,601.377V542.6943L198.0015,601.377h-6.2554l-16.2344-58.6827V601.377H156.7451V502.0332h23.8306l14.2983,50.7891,14.7451-50.7891h23.3838V601.377Z"/><path class="cls-1" d="M291.9849,601.377l-2.9786-18.3194H270.5376l-2.979,18.3194H248.1963l20.7026-99.3438h21.5967l20.8516,99.3438ZM279.772,523.0342l-7.1494,43.49h14.2983Z"/><path class="cls-1" d="M322.2217,551.7793c0-29.6392,9.3833-51.3843,31.1289-51.3843,16.0854,0,21.7451,12.8091,24.873,23.3838L363.33,529.29c-2.0855-7.5962-4.4683-12.2134-9.979-12.2134-8.9365,0-11.9155,14.4472-11.9155,34.7031s2.979,34.7031,11.9155,34.7031c6.1064,0,8.7871-6.2549,10.1279-14.4472l15.043,5.5117c-2.83,11.3193-8.6387,25.6172-25.1709,25.6172C331.605,603.1641,322.2217,581.27,322.2217,551.7793Z"/><path class="cls-1" d="M434.5229,601.377V558.4824H415.4585V601.377H396.6919V502.0332h18.7666v40.0654h19.0644V502.0332h18.7662V601.377Z"/><path class="cls-1" d="M476.2271,601.377V502.0332h18.7666V601.377Z"/><path class="cls-1" d="M556.8042,601.377l-20.1069-52.5762V601.377H517.9307V502.0332h18.7666l19.0644,50.64v-50.64h18.7666V601.377Z"/><path class="cls-1" d="M597.4663,601.377V502.0332H640.957v16.5327H616.2329v23.979h23.6817v16.5332H616.2329v25.7666H640.957V601.377Z"/><path class="cls-1" d="M692.9375,601.377V502.0332h18.7666v82.8115h24.7236V601.377Z"/><path class="cls-1" d="M754.748,601.377V502.0332h43.49v16.5327H773.5146v23.979h23.6817v16.5332H773.5146v25.7666h24.7237V601.377Z"/><path class="cls-1" d="M854.5381,601.377l-2.98-18.3194H833.09l-2.9785,18.3194H810.749l20.7031-99.3438h21.5958L873.9,601.377Zm-12.2139-78.3428-7.1484,43.49h14.2978Z"/><path class="cls-1" d="M924.69,601.377l-10.7236-36.49H907.86v36.49H889.0937V502.0332h27.7032c15.7871,0,27.1074,12.66,27.1074,30.8311,0,16.83-7.1494,24.4257-12.81,27.4052l13.7032,41.1075Zm.1494-67.917c0-9.0855-3.873-14.8941-10.873-14.8941H907.86v29.7876h6.1064C920.9668,548.3535,924.84,542.3965,924.84,533.46Z"/><path class="cls-1" d="M1003.9268,601.377,983.82,548.8008V601.377H965.0537V502.0332H983.82l19.0645,50.64v-50.64h18.7666V601.377Z"/><path class="cls-1" d="M1044.5889,601.377V502.0332h18.7666V601.377Z"/><path class="cls-1" d="M1125.166,601.377,1105.06,548.8008V601.377H1086.293V502.0332H1105.06l19.0644,50.64v-50.64h18.7666V601.377Z"/><path class="cls-1" d="M1162.7,551.7793c0-30.5327,9.6807-51.3843,31.1289-51.3843,13.8516,0,21.5967,10.5747,24.873,23.3838l-14.8945,5.5108c-1.6377-6.8516-4.17-12.2134-9.9785-12.2134-7.4473,0-11.915,10.873-11.915,34.7031,0,23.6816,4.4677,34.7031,11.915,34.7031a10.063,10.063,0,0,0,8.9365-4.4678V563.9932h-11.1709V547.46h27.7032v42.5976c-6.5538,8.3408-14.2989,13.1065-25.4688,13.1065C1172.3809,603.1641,1162.7,582.1631,1162.7,551.7793Z"/><path class="cls-1" d="M836.3008,696.2891l-6.0088-29.9815-5.9463,29.9815H817.085l-9.4512-41.7481h7.4482l6.0088,31.17,6.4473-31.17h5.57l6.51,31.17,5.9463-31.17h7.4482l-9.4512,41.7481Z"/><path class="cls-1" d="M863.9043,696.2891V654.541h6.9482v41.7481Z"/><path class="cls-1" d="M892.1338,696.2891V660.6113h-9.5772v-6.07h26.0381v6.07h-9.5761v35.6778Z"/><path class="cls-1" d="M942.52,696.2891V677.8867H927.2471v18.4024H920.3V654.541h6.9473v17.2119H942.52V654.541h6.9473v41.7481Z"/><path class="cls-1" d="M983.2041,696.2891V654.541h14.208c8.1992,0,12.33,6.0078,12.33,12.9561,0,7.0107-4.1309,13.0185-12.33,13.0185h-7.2607v15.7735Zm19.4658-28.792c0-4.1319-2.3789-6.8858-6.0713-6.8858h-6.4472v13.77h6.4472C1000.291,674.3818,1002.67,671.6279,1002.67,667.4971Z"/><path class="cls-1" d="M1030.0234,696.2891v-17.4l-12.957-24.3477h7.6992l8.7,17.8379,8.7-17.8379h7.6358l-12.8936,24.3477v17.4Z"/><path class="cls-1" d="M1067.0146,696.2891V660.6113h-9.5761v-6.07h26.0381v6.07H1073.9v35.6778Z"/><path class="cls-1" d="M1117.4014,696.2891V677.8867h-15.2725v18.4024h-6.9473V654.541h6.9473v17.2119h15.2725V654.541h6.9472v41.7481Z"/><path class="cls-1" d="M1136.9922,675.4463c0-12.2686,6.1348-21.5947,16.7119-21.5947s16.7119,9.3261,16.7119,21.5947-6.1338,21.5937-16.7119,21.5937S1136.9922,687.7139,1136.9922,675.4463Zm26.3515,0c0-8.7627-3.4423-15.46-9.64-15.46-6.2588,0-9.6387,6.6973-9.6387,15.46,0,8.6377,3.38,15.3975,9.6387,15.3975C1159.9014,690.8438,1163.3437,684.084,1163.3437,675.4463Z"/><path class="cls-1" d="M1205.5312,696.2891l-15.46-26.9766v26.9766h-6.9483V654.541h7.0108l15.084,26.2256V654.541h6.9482v41.7481Z"/><g id="Page-1" class="cls-2"><g id="hac-logo"><g id="hac-logo-light"><path id="Fill-1" class="cls-1" d="M438.6,189.6035l2.1644-.2288c1.8722-.1752,2.5756-.5828,2.5756-.99V156.2625c0-.4647-.35-.64-2.9832-.8723l-1.6954-.1716-.1768-.93h16.4383l-.1731.93-2.2834.2324c-1.8722.1716-2.572.5792-2.572.9831v15.0188H467.328v-15.19c0-.4647-.35-.64-2.9832-.8723l-1.7568-.1716-.1731-.93h16.4419l-.1768.93-2.222.2324c-1.8145.1716-2.5179.5792-2.5179.9831V188.56c0,.4648.3535.64,2.9868.8688l1.6954.1752.1768.9295H462.3536l.1767-.9295,2.2834-.2288c1.8722-.1752,2.5143-.5256,2.5143-.99V172.672H449.8941V188.56c0,.4648.35.64,2.9832.8688l1.8108.1752.1768.9295H438.4266Z"/><path id="Fill-3" class="cls-1" d="M495.1129,185.5465l.3535-8.8161c-6.9656,1.6231-8.6033,3.9433-8.6033,6.7283a3.9576,3.9576,0,0,0,3.8057,4.1756,6.0337,6.0337,0,0,0,4.4441-2.0878m.1768,1.1011-.1191-.0572c-2.2221,2.4346-4.6209,4.58-7.6618,4.58a6.1262,6.1262,0,0,1-6.32-5.9131c0-4.1184,3.4521-6.9606,14.2775-9.5132l.0577-1.5051c.1155-5.3947-2.1643-7.7149-5.7932-7.7149-2.049,0-4.0366.9867-4.0366,1.5086,0,.4076,1.58,1.6231,1.58,3.2462a2.9666,2.9666,0,0,1-3.16,2.7849c-1.8145,0-3.16-1.1011-3.16-2.61,0-3.3641,7.2542-6.8426,12.2286-6.8426,6.1432,0,8.542,2.32,8.1921,9.7992l-.5267,10.6143c-.119,1.97.6421,2.8994,1.8722,2.8994a4.2929,4.2929,0,0,0,2.572-1.5087l.5267.522c-1.3456,1.7982-3.5676,4.29-6.1432,4.29-2.5143,0-4.0943-1.5658-4.3864-4.58"/><path id="Fill-5" class="cls-1" d="M506.81,178.7038c0-7.9473,5.7319-14.0928,13.6895-14.0928,5.0935,0,8.9532,2.263,8.9532,5.5664a3.2163,3.2163,0,0,1-3.2753,3.2461,3.3442,3.3442,0,0,1-3.279-3.8253c0-1.2763.88-2.0306.88-2.3774-.1767-.6971-1.7567-1.5087-3.279-1.5087-4.2133,0-7.4886,4.1757-7.4886,10.6715,0,6.7247,3.6866,11.0183,8.8341,11.0183,3.0446,0,5.3857-1.1011,7.3733-4.2328l.6457.3468c-2.46,4.9872-6.0278,7.8865-11.1176,7.8865-6.8466,0-11.9364-5.4519-11.9364-12.6986"/><path id="Fill-7" class="cls-1" d="M531.1451,189.6035l1.0533-.0572c1.6377-.1716,2.28-.29,2.28-.9868V157.596c0-1.741-.35-2.2058-1.8721-2.61l-1.93-.6972.0577-.6363,9.5953-2.5526v27.3706l4.5055-4.29c2.9868-2.7278,4.859-4.8156,4.859-6.0311,0-.9867-.88-1.5659-3.1023-1.7411l-.7611-.0572-.1155-.93H558.12l-.1767.93-1.1111.1144c-2.5756.35-4.1555,1.7411-8.8378,6.2063l-1.3455,1.2763,7.3733,11.8871c1.7567,2.7849,2.2834,3.4785,4.271,3.6537l.9378.1144.1732.9295h-9.653l-1.1724-2.0879-6.0854-10.5535-2.1644,1.97v8.8125c0,.5256.3535.64,2.691.8724l.9956.0572.1191.9295H530.9684Z"/><path id="Fill-9" class="cls-1" d="M576.6605,173.2523c.0577-3.9433-1.23-7.54-4.4478-7.54-2.9832,0-5.6165,3.25-6.2586,7.597,0,0,10.7641-.0572,10.7064-.0572m-17.084,5.3911c0-7.9437,5.6742-14.0892,13.3973-14.0892,6.0855,0,9.6531,3.5965,9.6531,8.29a8.177,8.177,0,0,1-.1732,1.6231s-15.9729-.1716-16.5573-.1716a13.9266,13.9266,0,0,0-.1768,2.2594c.0578,6.4959,3.7444,10.8467,8.8919,10.8467a8.31,8.31,0,0,0,7.6078-4.2329l.642.3468c-2.4565,4.9872-6.1431,7.8866-11.2907,7.8866-6.9043,0-11.9941-5.5092-11.9941-12.7594"/><path id="Fill-11" class="cls-1" d="M585.55,189.6035l1.1111-.0572c1.6954-.118,2.3411-.29,2.3411-.9868V172.8472c0-3.5965-.469-4.1757-2.4566-4.64l-1.3455-.29.0577-.6971,9.5954-2.5526-.1191,8.6409h.1768c1.9876-5.5664,4.3287-8.6981,7.8422-8.6981a3.7225,3.7225,0,0,1,3.9788,3.5965,3.3415,3.3415,0,0,1-3.3367,3.4213,3.6948,3.6948,0,0,1-3.6867-3.25c-1.93.5827-3.51,2.96-4.9744,7.4826v12.8129c0,.5256.469.7544,2.81.8724l1.7567.0572.1732.9295H585.3731Z"/><path id="Fill-13" class="cls-1" d="M609.0641,189.9527l-.4112-7.3646,1.2878-.0572,1.3455,3.3606c1.5223,2.667,3.5712,4.3508,6.3776,4.3508,3.0446,0,5.2666-1.9126,5.2666-4.64,0-2.7814-2.7487-4.1757-6.2622-5.4484-3.9175-1.4479-7.4886-3.1317-7.4886-7.8293,0-4.5225,3.7443-7.7114,9.2454-7.7114a15.3845,15.3845,0,0,1,5.6165.9867l2.1066-.64.2922,7.54-1.1687.0573-3.0446-5.3948a6.8283,6.8283,0,0,0-3.9788-1.4479c-2.8678,0-4.5055,1.68-4.5055,4.0577,0,2.785,2.3411,3.7717,6.0278,5.1624,4.0978,1.5623,7.8422,3.2461,7.8422,8.1153,0,4.2937-3.5712,8.2977-10.3565,8.2977a23.5781,23.5781,0,0,1-8.1921-1.3943"/><path id="Fill-15" class="cls-1" d="M651.904,186.7127l.2416-7.5863c-6.778,1.6445-8.3363,3.6251-8.3363,6.1849a3.3507,3.3507,0,0,0,3.4629,3.575,6.708,6.708,0,0,0,4.6318-2.1736m0,.9188-.0974-.0465c-1.8037,1.8376-3.8526,3.4785-6.1937,3.4785a4.9842,4.9842,0,0,1-5.2161-4.8335c0-3.432,2.7776-5.7022,11.7993-7.8794l.0506-1.6445c.1443-4.88-2.049-6.2814-4.83-6.2814-1.9515,0-4.0473,1.1119-4.0473,1.6446,0,.34,1.1218,1.1118,1.1218,2.32a2.0007,2.0007,0,0,1-2.1463,1.9341,1.9362,1.9362,0,0,1-2.1463-1.8876c0-2.3667,5.4145-5.3626,9.22-5.3626,4.3864,0,6.4822,1.691,6.19,7.6327l-.487,10.2962c-.0469,1.4514.487,1.9841,1.4646,1.9841a4.0039,4.0039,0,0,0,2.2906-1.3549l.3932.4361c-1.0281,1.2549-2.489,3.0424-4.2927,3.0424-1.71,0-2.9759-1.2048-3.0733-3.4785"/><path id="Fill-17" class="cls-1" d="M662.576,186.1332l.2417-14.4-3.802-.1.1479-.8187,6.5327-5.4162.5844.1465-.0469,4.2544h7.2181l-.5843,1.834h-6.6338s-.3427,13.9713-.3427,14.0177c-.0469,2.32,1.2193,3.3856,3.3187,3.3856a6.8052,6.8052,0,0,0,4.1447-1.6946l.2922.4862c-1.8036,1.7375-3.8525,3.382-6.2441,3.382-2.7271,0-4.8771-1.3049-4.8266-5.0765"/><path id="Fill-19" class="cls-1" d="M683.7756,172.6727c0-11.2506,8.4842-19.1944,21.2395-19.1944a24.5082,24.5082,0,0,1,9.4186,1.9734l4.0365-1.2763.1768,11.7691h-1.2842L712.796,156.61a14.4028,14.4028,0,0,0-7.7809-1.9126c-8.9532,0-13.9853,7.7114-13.9853,17.4534,0,10.8431,5.9087,17.9753,14.043,17.9753,5.3821,0,8.4843-2.4346,11.2367-6.553,0-.0572,1.9876-4.64,1.9876-4.64h1.3455l-1.8145,10.3247-2.3411.0572a33.2317,33.2317,0,0,1-10.8831,2.0306c-12.1709,0-20.8283-7.3074-20.8283-18.6725"/><path id="Fill-21" class="cls-1" d="M737.7121,185.5465l.3535-8.8161c-6.9657,1.6231-8.6033,3.9433-8.6033,6.7283a3.9576,3.9576,0,0,0,3.8056,4.1756,6.0341,6.0341,0,0,0,4.4442-2.0878m.1767,1.1011-.1154-.0572c-2.2257,2.4346-4.6245,4.58-7.6654,4.58a6.1263,6.1263,0,0,1-6.32-5.9131c0-4.1184,3.4522-6.9606,14.2776-9.5132l.0541-1.5051c.119-5.3947-2.1608-7.7149-5.79-7.7149-2.0489,0-4.0365.9867-4.0365,1.5086,0,.4076,1.5764,1.6231,1.5764,3.2462a2.9632,2.9632,0,0,1-3.1564,2.7849c-1.8144,0-3.16-1.1011-3.16-2.61,0-3.3641,7.2543-6.8426,12.2287-6.8426,6.1431,0,8.542,2.32,8.1884,9.7992l-.523,10.6143c-.1154,1.97.6457,2.8994,1.8686,2.8994a4.28,4.28,0,0,0,2.5755-1.5087l.53.522c-1.3455,1.7982-3.5712,4.29-6.1431,4.29-2.5215,0-4.0979-1.5658-4.39-4.58"/><path id="Fill-23" class="cls-1" d="M749.3509,189.6035l1.1146-.0572c1.6954-.118,2.3375-.29,2.3375-.9868V172.8472c0-3.5965-.4689-4.1757-2.4565-4.64l-1.3455-.29.0577-.6971,9.5953-2.5526-.1154,4.6976.1154.0572c2.3988-2.2022,5.3279-4.812,9.1264-4.812a6.468,6.468,0,0,1,4.6822,1.8554,5.5611,5.5611,0,0,1,1.5836,3.1318l.1731.0572c2.5179-2.549,5.5589-5.0444,9.3609-5.0444a6.2919,6.2919,0,0,1,4.6822,1.7982c1.4032,1.3907,1.9876,3.7681,1.9876,6.7855V188.62c0,.404.0577.6936,2.7524.926l.8765.0572.1768.9295H780.8892l.1767-.9295,1.1688-.0572c1.93-.118,2.1643-.4648,2.1643-.9868V174.2379c0-4.1757-1.58-5.6271-4.8554-5.6271-2.1066,0-4.39,1.0439-5.09,2.32a13.731,13.731,0,0,1-.0613,1.5086v16.2343c0,.4076.119.64,2.691.8724l.9379.0572.1767.9295H765.1507l.1767-.9295,1.1075-.0572c1.8758-.118,2.1679-.4648,2.1679-.9868V174.2379c0-4.1757-1.6376-5.6271-4.859-5.6271a9.0287,9.0287,0,0,0-5.2052,1.9734v18.09c0,.5256.3535.7008,2.63.8724l1.1146.0572.1154.9295H749.1777Z"/><path id="Fill-25" class="cls-1" d="M816.219,179.05c0-5.9132-2.8677-10.3784-7.37-10.3784a7.9857,7.9857,0,0,0-5.851,2.7242v13.5709c1.5187,2.8386,4.152,5.1623,6.843,5.1623,3.9211,0,6.3776-4.8728,6.3776-11.079Zm-18.9561-21.5111c0-1.6839-.3535-2.1486-1.93-2.61l-1.93-.6971.0541-.6364,9.5412-2.5526v18.73l.2309.0572c2.3988-2.7814,5.3856-4.93,8.8955-4.93,6.0241,0,10.4755,5.22,10.4755,12.2946a13.7265,13.7265,0,0,1-13.8122,14.15,21.6461,21.6461,0,0,1-7.4274-1.6267h-.0613l-3.51,2.0342h-.5266Z"/><path id="Fill-27" class="cls-1" d="M825.2231,189.6035l1.1147-.0572c1.6954-.118,2.3375-.29,2.3375-.9868V172.8472c0-3.5965-.469-4.1757-2.4565-4.64l-1.3456-.29.0578-.6971,9.5953-2.5526-.1155,8.6409h.1768c1.9876-5.5664,4.3287-8.6981,7.8422-8.6981a3.7192,3.7192,0,0,1,3.9752,3.5965,3.3392,3.3392,0,0,1-3.3367,3.4213,3.6912,3.6912,0,0,1-3.683-3.25c-1.93.5827-3.5135,2.96-4.9745,7.4826v12.8129c0,.5256.469.7544,2.8065.8724l1.76.0572.17.9295H825.05Z"/><path id="Fill-29" class="cls-1" d="M850.0866,156.5518a3.7155,3.7155,0,0,1,7.4309,0,3.7155,3.7155,0,0,1-7.4309,0Zm-2.168,33.0513,1.1146-.0572c1.699-.118,2.3375-.29,2.3375-.9867V172.79c0-3.5393-.4076-4.1184-2.4529-4.5832l-1.2914-.29.0613-.6972,9.48-2.549v24.0029c0,.5255.35.7007,2.7487.8723l.9343.0572.1768.9295H847.749Z"/><path id="Fill-31" class="cls-1" d="M882.6753,185.0227V171.1659c-1.4646-2.8422-4.0979-5.048-6.7312-5.048-4.0942,0-6.4353,4.8156-6.4353,10.9575,0,5.9739,2.9255,10.5571,7.4886,10.5571a7.84,7.84,0,0,0,5.6779-2.61Zm0,1.4479-.1768-.0536c-2.2834,2.7814-5.3243,4.8692-8.8342,4.8692-5.9123,0-10.5332-5.22-10.5332-12.409a14.22,14.22,0,0,1,19.4251-12.9917s.1191-.0572.1191,0v-8.87c0-1.6838-.4113-2.263-1.9335-2.5526l-2.4566-.6363.1155-.64,10.0065-2.0878v35.2c0,1.5659.2922,1.9163,1.111,2.1451l2.81.64-.0613.6936-9.5917,1.6838Z"/><path id="Fill-33" class="cls-1" d="M909.8177,173.657c0-4.7549-1.4068-8.001-4.7976-8.001-2.8065,0-4.5055,2.7242-4.5055,7.3646,0,4.93,1.7531,7.8866,4.5055,7.8866,3.0445,0,4.7976-2.5526,4.7976-7.25m4.621,23.0805c0-2.8994-1.9913-4.5832-6.9044-4.812-1.699-.0608-4.2673.0536-6.6662.2288a5.6787,5.6787,0,0,0-3.398,5.0444c0,3.6537,3.5676,6.149,8.542,6.149s8.4266-2.9565,8.4266-6.61m-21.59,1.97c0-3.3033,3.5676-5.5091,6.7275-6.7282v-.1144c-3.4521-.404-5.9087-2.3774-5.9087-4.7548,0-2.8958,3.16-5.1052,6.2622-5.9132v-.1144a7.8564,7.8564,0,0,1-5.2666-7.4825c0-4.9872,4.4442-8.93,10.4142-8.93a13.0813,13.0813,0,0,1,6.962,1.9734l7.6655-.9295-.4077,3.25-5.8509-.8723-.0614.2324a6.6915,6.6915,0,0,1,2.0489,4.812c0,4.93-4.5054,8.7553-10.5909,8.7553a22.0175,22.0175,0,0,1-3.6289-.3432c-1.6377.3432-3.0409,1.3871-3.0409,2.7814,0,1.68,1.6413,2.3774,4.5055,2.3774,1.9335,0,4.9708-.1752,7.0774-.1752,5.3279,0,8.6033,2.7278,8.6033,7.1322,0,6.3207-6.2045,11.1935-15.4462,11.1935-6.3813,0-10.0643-2.263-10.0643-6.1491"/><path id="Fill-35" class="cls-1" d="M937.3689,173.2523c.0613-3.9433-1.23-7.54-4.4441-7.54-2.9868,0-5.62,3.25-6.2658,7.597,0,0,10.7712-.0572,10.71-.0572m-17.084,5.3911c0-7.9437,5.6743-14.0892,13.401-14.0892,6.0818,0,9.6494,3.5965,9.6494,8.29a7.6943,7.6943,0,0,1-.1767,1.6231s-15.9694-.1716-16.5537-.1716a13.9153,13.9153,0,0,0-.1768,2.2594c.0577,6.4959,3.7443,10.8467,8.8955,10.8467a8.3078,8.3078,0,0,0,7.6041-4.2329l.6457.3468c-2.46,4.9872-6.1432,7.8866-11.2943,7.8866-6.9043,0-11.9942-5.5092-11.9942-12.7594"/></g></g></g></svg>